<svg width="17" height="17" viewBox="0 0 17 17" fill="none" xmlns="http://www.w3.org/2000/svg">
<circle cx="8.5" cy="8.5" r="8.5" fill="white"/>
<path d="M5.44176 4.27273V13H3.8608V4.27273H5.44176ZM10.1112 13H7.15376V4.27273H10.1708C11.0373 4.27273 11.7816 4.44744 12.4038 4.79688C13.0288 5.14347 13.5089 5.64205 13.8441 6.29261C14.1793 6.94318 14.3469 7.72159 14.3469 8.62784C14.3469 9.53693 14.1779 10.3182 13.8398 10.9716C13.5046 11.625 13.0202 12.1264 12.3867 12.4759C11.756 12.8253 10.9975 13 10.1112 13ZM8.73473 11.6321H10.0344C10.6424 11.6321 11.1495 11.5213 11.5558 11.2997C11.962 11.0753 12.2674 10.7415 12.4719 10.2983C12.6765 9.85227 12.7788 9.29545 12.7788 8.62784C12.7788 7.96023 12.6765 7.40625 12.4719 6.96591C12.2674 6.52273 11.9648 6.19176 11.5643 5.97301C11.1665 5.75142 10.6722 5.64062 10.0813 5.64062H8.73473V11.6321Z" fill="black"/>
</svg>
